# xmcd CD database file
#
# Track frame offsets:
#	150
#	17810
#	35130
#	52740
#
# Disc length: 930 seconds
#
# Revision: 2
# Processed by: cddbd v1.5.1PL0 Copyright (c) Steve Scherf et al.
# Submitted via: CDex 1.51
#
DISCID=2a03a004
DTITLE=徳永 愛 - まじかるカナン
DYEAR=2003
DGENRE=Anime
TTITLE0=宮崎 羽衣／マジカルちょーだいっ
TTITLE1=徳永 愛／コイゴゴロ
TTITLE2=マジカルちょーだいっ オリジナルカラオケ
TTITLE3=コイゴコロ オリジナルカラオケ
EXTD=YEAR: 2003
EXTT0=
EXTT1=
EXTT2=
EXTT3=
PLAYORDER=
